<svg fill="none" height="128" viewBox="0 0 128 128" width="128" xmlns="http://www.w3.org/2000/svg" xmlns:xlink="http://www.w3.org/1999/xlink"><radialGradient id="a" cx="0" cy="0" gradientTransform="matrix(62.56030675 -84.3466552 85.22132556 63.20905383 34.3222 109.119)" gradientUnits="userSpaceOnUse" r="1"><stop offset="0" stop-color="#3a77f6"/><stop offset=".55" stop-color="#814ef6"/><stop offset=".66" stop-color="#9145f6"/><stop offset="1" stop-color="#ff6b68"/></radialGradient><clipPath id="b"><path d="m0 0h128v128h-128z"/></clipPath><g clip-path="url(#b)"><path d="m64-.0856323c-35.3302 0-64 27.7798323-64 62.0462323 0 18.4792 8.37892 35.0243 21.5994 46.3944l.458 14.571c.0265.845.2608 1.671.6823 2.404s1.0172 1.351 1.7345 1.799c.7173.449 1.5342.714 2.3785.773s1.69-.091 2.4626-.436l14.7297-6.574c6.4494 2.07 13.1808 3.129 19.955 3.141 35.3301 0 64-27.7799 64-62.0506s-28.6699-62.0680323-64-62.0680323z" fill="url(#a)"/><path d="m25.7561 79.4596s-2.5647 2.9311 0 4.8852c0 0 2.1372 2.0761 4.7019-.4362l18.712-14.0012s3.1142-3.2975 6.5906 0l15.1091 11.262s4.9026 2.6171 9.5696 0c1.5059-.9154 2.777-2.1701 3.7119-3.6639l19.0738-30.4014s.75-2.1808-1.038-3.5722c0 0-1.37-1.5528-3.7075 0l-20.1905 15.2966s-2.7479 2.2856-5.173 0l-15.7983-11.7767s-4.9419-3.1754-10.1934 0c-1.1674.932-2.1777 2.0453-2.9922 3.2975z" fill="#fefefe"/></g></svg>