<svg fill="none" height="128" viewBox="0 0 128 128" width="128" xmlns="http://www.w3.org/2000/svg" xmlns:xlink="http://www.w3.org/1999/xlink"><linearGradient id="a" gradientUnits="userSpaceOnUse" x1="64" x2="64.3546" y1="0" y2="117.951"><stop offset="0" stop-color="#8ad336"/><stop offset="1" stop-color="#509600"/></linearGradient><path d="m64 128c35.3462 0 64-28.6538 64-64s-28.6538-64-64-64-64 28.6538-64 64 28.6538 64 64 64z" fill="url(#a)"/><path clip-rule="evenodd" d="m40.7526 27.216c.4346.1487 1.1048.4957 1.4897.7437 2.3584 1.5617 8.9251 9.9527 11.0729 14.1424 1.2288 2.3921 1.6384 4.1644 1.2535 5.4784-.3974 1.4129-1.0551 2.1565-3.9971 4.5239-1.1793.9545-2.2842 1.9337-2.4579 2.1941-.4468.6443-.807 1.9086-.807 2.8011.0125 2.0698 1.3533 5.8255 3.116 8.7133 1.3652 2.2435 3.8109 5.1189 6.2315 7.3254 2.8425 2.6031 5.3501 4.3753 8.1804 5.776 3.6372 1.8095 5.8592 2.2679 7.4854 1.5121.4096-.1861.8439-.434.9806-.5454.1239-.1114 1.0799-1.2768 2.1228-2.5655 2.0107-2.5289 2.4701-2.9376 3.8481-3.4086 1.7504-.5949 3.5378-.4341 5.3376.4832 1.3656.7066 4.3448 2.5533 6.2688 3.8921 2.5324 1.7722 7.9448 6.1847 8.6773 7.065 1.2908 1.5863 1.5148 3.6189.6448 5.8627-.9183 2.3671-4.4933 6.8046-6.9884 8.7011-2.2592 1.71-3.8604 2.367-5.9706 2.466-1.7379.087-2.4579-.062-4.6799-.979-17.4286-7.1764-31.344-17.8853-42.3921-32.598-5.7722-7.6847-10.1664-15.6544-13.1707-23.9215-1.7502-4.8215-1.837-6.9163-.3972-9.3827.6208-1.0411 3.2648-3.6195 5.1888-5.0571 3.2029-2.3798 4.6799-3.2599 5.8592-3.5077.807-.1736 2.2095-.0373 3.1035.285z" fill="#fff" fill-rule="evenodd"/></svg>