<svg fill="none" height="128" viewBox="0 0 128 128" width="128" xmlns="http://www.w3.org/2000/svg"><path d="m63.9146 127.829c35.299 0 63.9144-28.6154 63.9144-63.9144 0-35.2991-28.6154-63.9146-63.9144-63.9146-35.2991 0-63.9146 28.6155-63.9146 63.9146 0 35.299 28.6155 63.9144 63.9146 63.9144z" fill="#1bbbe7"/><g fill="#fff"><path d="m30.4192 55.8825c0-.1709 0-.3418 0-.3418-3.7597 2.7343-6.3231 7.1776-6.3231 12.3044 0 5.1269 2.5634 9.5701 6.3231 12.3044 0-.1709 0-.3418 0-.5127z"/><path d="m97.5807 55.5407v.3418 23.5834.5127c3.7593-2.7343 6.3233-7.1775 6.3233-12.3044 0-5.1268-2.564-9.3992-6.3233-12.1335z"/><path d="m63.9146 25.2924c-16.4059 0-29.7357 12.988-30.4192 29.223-.1709.5126-.3418.8544-.3418 1.3671v23.5835c0 1.7089 1.538 3.247 3.247 3.247h6.8357c1.709 0 3.247-1.5381 3.247-3.247v-23.5835c0-1.7089-1.538-3.247-3.247-3.247h-4.1014c1.538-12.3044 12.1335-21.8745 24.7797-21.8745 12.8171 0 23.2416 9.5701 24.7797 21.8745h-4.1015c-1.7089 0-3.247 1.5381-3.247 3.247v23.5835c0 1.7089 1.5381 3.247 3.247 3.247h4.2724c-.6836 6.1522-3.9306 9.3992-11.1082 10.7663-1.1962-1.8798-3.247-3.0761-5.4686-3.0761-3.5888 0-6.494 2.9052-6.494 6.494s2.9052 6.4938 6.494 6.4938c2.9052 0 5.2977-1.88 6.1522-4.4431 7.6903-1.3671 15.8932-5.4686 16.0641-18.1148.1709-.5127.3418-.8545.3418-1.3671v-23.5835c0-.5127-.1709-1.0254-.3418-1.3671-.6836-16.235-14.1842-29.223-30.5901-29.223z"/></g></svg>