<svg fill="none" height="128" viewBox="0 0 128 128" width="128" xmlns="http://www.w3.org/2000/svg" xmlns:xlink="http://www.w3.org/1999/xlink"><mask id="a" height="128" maskUnits="userSpaceOnUse" width="128" x="0" y="0"><circle cx="64" cy="64" fill="#c4c4c4" r="64"/></mask><g mask="url(#a)"><path d="m0 0h128v128h-128z" fill="#24964a"/><path d="m-12.5 128 140.5-140.5 8 150z" fill="#fadb2a"/><path d="m8 128 120-120v120z" fill="#fff"/><path d="m64 72-56 56h112z" fill="#2b5cb4"/><path d="m72 64 56-56v112z" fill="#c1c0be"/><path d="m22.4153 42.4615c5.75-2.75 12.75-1.5 17.5 2.75l-4.5 4.25c-4.5-4.5-13.25-2.5-15.5 3.75-2.75 6 2 13.75 8.5 14 4.5.5 8.75-2.5 9.75-6.75h-9.25v-5.75c5.25.25 10.5-.25 15.5.25.25 3.75 0 7.75-2 11-3 5.75-10.5 8.25-16.75 6.75-7.75-1.5-13.75-9.5-12.5-17.25.5-5.75 4.25-10.75 9.25-13z" fill="#f2f2f2"/><path d="m87.3154 29.25c-2.5.5-4.5 2.75-4.75 5-.25 2.5 1 4.75 3.25 5.75 2 1.25 5.25 1 7-.75 1.75-1.5 2.5-4.5 1.5-6.5-1-2.75-4.25-4.25-7-3.5zm.25-11.25h2c5 .25 10 3 13.2496 7 2 2.5 3 5.75 3.25 9v1.25c0 6.25-4 11.25-7.4996 16.5-4 5.25-7.5 11.25-8.75 18.25-.25 1.25.25 2.75-1.25 3.25l-1-.75c-.25-3.75-1.25-7.5-2.75-11-2-4-4.5-8-7.25-11.5-1.5-2.25-3-4.25-4.25-6.75-1.8717-3.1795-2.6412-6.8879-2.1892-10.5496.4521-3.6616 2.1004-7.0716 4.6892-9.7004 3.25-2.75 7.5-4.75 11.75-5z" fill="#de3738"/><path d="m88.5654 41.25c3.4518 0 6.25-2.7982 6.25-6.25s-2.7982-6.25-6.25-6.25c-3.4517 0-6.25 2.7982-6.25 6.25s2.7983 6.25 6.25 6.25z" fill="#7d2426"/></g></svg>